<?xml version="1.0" encoding="utf-8"?>
<!-- Generator: Adobe Illustrator 16.0.0, SVG Export Plug-In . SVG Version: 6.00 Build 0)  -->
<!DOCTYPE svg PUBLIC "-//W3C//DTD SVG 1.1//EN" "http://www.w3.org/Graphics/SVG/1.1/DTD/svg11.dtd">
<svg version="1.1" id="Calque_1" xmlns="http://www.w3.org/2000/svg" xmlns:xlink="http://www.w3.org/1999/xlink" x="0px" y="0px"
	 width="566.93px" height="566.93px" viewBox="0 0 566.93 566.93" enable-background="new 0 0 566.93 566.93" xml:space="preserve">
<g>
	<path fill="#FFFFFF" d="M218.612,327.297c0-0.776,0-1.31,0-1.842c0.004-17.467,0.021-34.935,0.006-52.402
		c-0.007-8.239-0.108-16.458,2.344-24.485c1.714-5.611,4.015-10.899,7.123-15.872c4.533-7.253,10.389-13.229,17.389-18.074
		c6.469-4.478,13.598-7.655,21.281-9.246c15.178-3.142,29.739-1.271,43.408,6.278c6.44,3.557,12.032,8.17,16.85,13.749
		c4.559,5.28,8.093,11.172,10.69,17.612c2.988,7.408,4.227,15.189,4.253,23.142c0.065,19.771,0.04,39.542,0.052,59.312
		c0,0.564,0,1.129,0,2.073c1.706-0.461,3.126-0.763,4.491-1.227c4.749-1.611,8.349-6.298,8.429-11.304
		c0.111-6.966,0.105-13.936-0.044-20.9c-0.035-1.644-0.652-3.356-1.336-4.889c-1.514-3.387-4.28-5.494-7.771-6.754
		c0-5.796-0.006-11.535,0.002-17.272c0.008-6.97-1.099-13.775-3.31-20.366c-2.751-8.202-6.994-15.562-12.682-22.127
		c-4.398-5.079-9.428-9.383-15.096-12.919c-7.441-4.642-15.564-7.589-24.221-8.959c-8.116-1.284-16.198-1.039-24.254,0.731
		c-5.642,1.239-11.019,3.166-16.118,5.81c-4.43,2.297-8.691,4.934-12.335,8.389c-2.939,2.786-5.904,5.585-8.512,8.67
		c-3.417,4.042-6.128,8.58-8.391,13.402c-3.05,6.5-5.208,13.289-5.679,20.408c-0.505,7.62-0.316,15.288-0.365,22.936
		c-0.007,1.048-0.293,1.534-1.301,1.896c-4.439,1.595-7.86,6.368-7.922,11.049c-0.083,6.327-0.048,12.655-0.148,18.982
		c-0.053,3.306,0.668,6.349,2.718,8.96C210.753,325.357,214.195,327.06,218.612,327.297z M339.699,304.595
		c0-7.407,0.034-14.812-0.034-22.218c-0.011-1.24-0.281-2.548-0.742-3.701c-1.574-3.938-6.255-5.723-10.14-4.083
		c-3.406,1.437-4.92,4.042-4.945,7.608c-0.034,4.857-0.011,9.715-0.01,14.574c0.003,10.058,0.011,20.117,0.008,30.176
		c-0.002,3.399,1.408,6.056,4.483,7.483c5.449,2.529,11.339-1.307,11.369-7.317C339.728,319.608,339.698,312.102,339.699,304.595z
		 M220.926,304.934c0,7.503-0.053,15.008,0.017,22.511c0.053,5.634,5.465,9.22,10.732,7.216c3.034-1.153,4.898-3.851,4.918-7.32
		c0.036-6.271,0.007-12.545,0.006-18.817c0-8.975,0.045-17.949-0.02-26.924c-0.032-4.45-3.91-8.072-8.303-7.639
		c-4.09,0.404-7.382,3.162-7.36,8.317C220.95,289.828,220.926,297.381,220.926,304.934z"/>
	<path fill-rule="evenodd" clip-rule="evenodd" d="M218.612,327.297c-4.417-0.237-7.859-1.939-10.448-5.238
		c-2.05-2.611-2.771-5.654-2.718-8.96c0.1-6.327,0.065-12.655,0.148-18.982c0.062-4.682,3.483-9.454,7.922-11.049
		c1.008-0.362,1.294-0.847,1.301-1.896c0.048-7.648-0.14-15.315,0.365-22.936c0.471-7.119,2.628-13.908,5.679-20.408
		c2.262-4.822,4.974-9.359,8.391-13.402c2.607-3.085,5.573-5.884,8.512-8.67c3.644-3.455,7.905-6.092,12.335-8.389
		c5.099-2.644,10.476-4.571,16.118-5.81c8.057-1.77,16.139-2.015,24.254-0.731c8.656,1.37,16.779,4.317,24.221,8.959
		c5.668,3.536,10.697,7.84,15.096,12.919c5.688,6.565,9.931,13.926,12.682,22.127c2.211,6.591,3.317,13.396,3.31,20.366
		c-0.008,5.738-0.002,11.476-0.002,17.272c3.491,1.26,6.258,3.368,7.771,6.754c0.684,1.532,1.301,3.245,1.336,4.889
		c0.149,6.965,0.155,13.935,0.044,20.9c-0.08,5.006-3.68,9.692-8.429,11.304c-1.365,0.464-2.785,0.766-4.491,1.227
		c0-0.944,0-1.509,0-2.073c-0.012-19.771,0.014-39.542-0.052-59.312c-0.026-7.953-1.265-15.733-4.253-23.142
		c-2.598-6.439-6.132-12.332-10.69-17.612c-4.817-5.579-10.409-10.192-16.85-13.749c-13.669-7.549-28.23-9.42-43.408-6.278
		c-7.683,1.59-14.812,4.768-21.281,9.246c-7,4.844-12.856,10.821-17.389,18.074c-3.108,4.972-5.409,10.26-7.123,15.872
		c-2.452,8.028-2.352,16.246-2.344,24.485c0.016,17.467-0.002,34.935-0.006,52.402C218.612,325.987,218.612,326.521,218.612,327.297
		z"/>
	<path fill-rule="evenodd" clip-rule="evenodd" d="M339.699,304.595c-0.001,7.507,0.028,15.014-0.011,22.521
		c-0.03,6.011-5.92,9.847-11.369,7.317c-3.075-1.428-4.485-4.084-4.483-7.483c0.003-10.059-0.005-20.118-0.008-30.176
		c-0.001-4.858-0.024-9.717,0.01-14.574c0.025-3.567,1.539-6.171,4.945-7.608c3.885-1.64,8.565,0.146,10.14,4.083
		c0.461,1.153,0.731,2.461,0.742,3.701C339.733,289.782,339.699,297.188,339.699,304.595z"/>
	<path fill-rule="evenodd" clip-rule="evenodd" d="M220.926,304.934c0-7.553,0.024-15.105-0.009-22.657
		c-0.022-5.155,3.27-7.913,7.36-8.317c4.394-0.434,8.271,3.189,8.303,7.639c0.064,8.975,0.019,17.95,0.02,26.924
		c0.001,6.272,0.029,12.546-0.006,18.817c-0.02,3.47-1.884,6.167-4.918,7.32c-5.267,2.004-10.68-1.582-10.732-7.216
		C220.874,319.941,220.926,312.437,220.926,304.934z"/>
</g>
</svg>
