<?xml version="1.0" encoding="utf-8"?>
<!-- Generator: Adobe Illustrator 16.0.0, SVG Export Plug-In . SVG Version: 6.00 Build 0)  -->
<!DOCTYPE svg PUBLIC "-//W3C//DTD SVG 1.1//EN" "http://www.w3.org/Graphics/SVG/1.1/DTD/svg11.dtd">
<svg version="1.1" id="Calque_1" xmlns="http://www.w3.org/2000/svg" xmlns:xlink="http://www.w3.org/1999/xlink" x="0px" y="0px"
	 width="566.93px" height="566.93px" viewBox="0 0 566.93 566.93" enable-background="new 0 0 566.93 566.93" xml:space="preserve">
<g>
	<path fill="#FFFFFF" d="M55.864,418.93c0-78,0-156,0-234c147.692,0,295.385,0,443.077,0c0,78,0,156,0,234
		C351.249,418.93,203.556,418.93,55.864,418.93z M248.617,316.485c1.566,0.116,3.192,0.469,4.768,0.31
		c6.24-0.627,11.777,1.407,17.144,4.22c0.135,0.071,0.332,0.072,0.422,0.175c0.566,0.643,1.235,1.235,1.641,1.971
		c1.728,3.135,2.934,6.666,5.13,9.413c8.66,10.829,19.939,17.974,33.256,21.592c18.423,5.004,36.24,3.462,52.354-7.343
		c15.904-10.666,25.275-25.89,28.442-44.779c1.369-8.161,1.618-16.403-0.813-24.444c-1.55-5.123-3.484-10.127-5.255-15.183
		c-0.073-0.211-0.217-0.41-0.366-0.579c-4.47-5.073-8.442-10.724-13.509-15.107c-18.306-15.838-39.514-19.963-62.646-13.557
		c-14.506,4.018-25.481,13.169-33.929,25.492c-1.646,2.401-3.287,4.858-5.282,6.955c-3.287,3.456-6.079,3.748-10.415,1.775
		c-1.595-0.725-3.244-1.392-4.936-1.824c-1.819-0.464-3.55,0.147-4.194,1.964c-1.088,3.073-3.396,4.345-6.283,5.104
		c-1.925,0.507-3.834,1.102-5.704,1.784c-2.418,0.881-4.363,0.545-6.229-1.41c-1.92-2.011-4.016-1.919-6.135-0.16
		c-0.471,0.392-0.896,0.842-1.325,1.282c-4.126,4.243-5.286,4.253-9.321,0.08c-0.107-0.11-0.212-0.223-0.32-0.333
		c-3.414-3.468-6.953-3.595-10.485-0.236c-1.249,1.188-2.252,2.636-3.53,4.157c-1.307-1.245-2.611-2.416-3.835-3.665
		c-4.119-4.203-6.146-4.531-11.005-1.283c-2.349,1.57-4.619,1.854-7.132,0.689c-0.974-0.451-1.994-0.822-2.914-1.366
		c-5.213-3.08-10.168-2.242-14.478,1.513c-6.598,5.75-12.941,11.794-19.329,17.782c-1.939,1.817-2.391,4.188-1.152,6.547
		c3.342,6.361,7.674,11.395,15.803,10.831c1.073-0.074,2.151-0.13,3.226-0.123c9.836,0.057,19.672,0.094,29.508,0.209
		c13.755,0.161,27.508,0.393,41.263,0.572c3.219,0.043,6.454-0.203,9.656,0.04C245.53,309.913,247.494,311.767,248.617,316.485z"/>
	<path fill-rule="evenodd" clip-rule="evenodd" d="M248.617,316.485c-1.123-4.718-3.086-6.572-7.91-6.938
		c-3.202-0.243-6.437,0.003-9.656-0.04c-13.755-0.18-27.508-0.411-41.263-0.572c-9.835-0.115-19.671-0.152-29.508-0.209
		c-1.075-0.007-2.153,0.049-3.226,0.123c-8.129,0.563-12.461-4.47-15.803-10.831c-1.239-2.359-0.788-4.729,1.152-6.547
		c6.388-5.987,12.731-12.032,19.329-17.782c4.309-3.755,9.265-4.592,14.478-1.513c0.92,0.544,1.94,0.915,2.914,1.366
		c2.513,1.165,4.783,0.881,7.132-0.689c4.86-3.248,6.886-2.919,11.005,1.283c1.224,1.249,2.528,2.42,3.835,3.665
		c1.277-1.521,2.281-2.969,3.53-4.157c3.532-3.359,7.072-3.232,10.485,0.236c0.108,0.11,0.213,0.223,0.32,0.333
		c4.036,4.173,5.195,4.163,9.321-0.08c0.429-0.44,0.854-0.89,1.325-1.282c2.119-1.76,4.215-1.852,6.135,0.16
		c1.866,1.955,3.811,2.291,6.229,1.41c1.87-0.682,3.778-1.277,5.704-1.784c2.887-0.758,5.194-2.031,6.283-5.104
		c0.645-1.817,2.375-2.428,4.194-1.964c1.691,0.432,3.341,1.099,4.936,1.824c4.336,1.973,7.128,1.681,10.415-1.775
		c1.995-2.097,3.636-4.554,5.282-6.955c8.448-12.322,19.423-21.474,33.929-25.492c23.132-6.407,44.34-2.282,62.646,13.557
		c5.066,4.384,9.039,10.034,13.509,15.107c0.149,0.169,0.293,0.368,0.366,0.579c1.771,5.055,3.705,10.06,5.255,15.183
		c2.432,8.041,2.183,16.283,0.813,24.444c-3.167,18.89-12.538,34.113-28.442,44.779c-16.113,10.805-33.931,12.347-52.354,7.343
		c-13.316-3.618-24.596-10.763-33.256-21.592c-2.196-2.747-3.402-6.278-5.13-9.413c-0.406-0.735-1.075-1.328-1.641-1.971
		c-0.09-0.103-0.287-0.104-0.422-0.175c-5.367-2.812-10.904-4.847-17.144-4.22C251.809,316.954,250.183,316.601,248.617,316.485z
		 M271.328,268.692c0.227,0.225,0.453,0.45,0.679,0.675c2.473-2.369,5.103-4.596,7.38-7.138c3.279-3.661,6.069-7.777,9.478-11.301
		c9.17-9.478,20.722-13.982,33.65-15.306c19.806-2.028,36.574,4.773,50.208,18.704c12.847,13.128,16.55,29.546,13.441,47.328
		c-3.137,17.951-12.205,32.352-27.911,42.054c-12.384,7.648-25.964,9.565-40.142,7.087c-14.456-2.527-26.19-9.616-34.976-21.554
		c-2.486-3.379-5.493-6.421-8.544-9.318c-1.528-1.451-3.691-2.234-5.816-3.463c3.72,4.67,7.165,8.955,10.569,13.273
		c16.067,20.386,37.392,28.013,62.337,23.282c34.504-6.542,54.337-42.651,46.23-75.039c-9.785-39.098-52.898-53.226-82.284-41.084
		c-10.193,4.211-18.167,11.377-25.573,19.267C276.542,259.903,273.506,264.019,271.328,268.692z M359.668,278.616
		c-9.004,0.022-15.376,6.306-15.355,15.144c0.021,9.09,6.654,16.192,15.108,16.18c8.988-0.014,15.365-6.193,15.354-14.881
		C374.764,285.785,368.158,278.595,359.668,278.616z"/>
	<path fill-rule="evenodd" clip-rule="evenodd" fill="#FFFFFF" d="M271.328,268.692c2.178-4.673,5.214-8.789,8.727-12.531
		c7.406-7.89,15.38-15.056,25.573-19.267c29.386-12.142,72.499,1.986,82.284,41.084c8.106,32.387-11.727,68.497-46.23,75.039
		c-24.945,4.73-46.27-2.896-62.337-23.282c-3.404-4.318-6.849-8.604-10.569-13.273c2.125,1.229,4.289,2.012,5.816,3.463
		c3.051,2.897,6.058,5.939,8.544,9.318c8.786,11.938,20.52,19.026,34.976,21.554c14.178,2.479,27.758,0.562,40.142-7.087
		c15.706-9.702,24.774-24.103,27.911-42.054c3.108-17.782-0.595-34.2-13.441-47.328c-13.634-13.931-30.402-20.732-50.208-18.704
		c-12.929,1.323-24.48,5.828-33.65,15.306c-3.408,3.524-6.198,7.64-9.478,11.301c-2.277,2.542-4.907,4.77-7.38,7.138
		C271.781,269.142,271.555,268.917,271.328,268.692z"/>
	<path fill-rule="evenodd" clip-rule="evenodd" fill="#FFFFFF" d="M359.668,278.616c8.49-0.021,15.096,7.169,15.107,16.442
		c0.011,8.688-6.366,14.867-15.354,14.881c-8.454,0.013-15.087-7.09-15.108-16.18C344.292,284.921,350.664,278.638,359.668,278.616z
		"/>
</g>
</svg>
