<?xml version="1.0" encoding="utf-8"?>
<!-- Generator: Adobe Illustrator 16.0.0, SVG Export Plug-In . SVG Version: 6.00 Build 0)  -->
<!DOCTYPE svg PUBLIC "-//W3C//DTD SVG 1.1//EN" "http://www.w3.org/Graphics/SVG/1.1/DTD/svg11.dtd">
<svg version="1.1" id="Calque_1" xmlns="http://www.w3.org/2000/svg" xmlns:xlink="http://www.w3.org/1999/xlink" x="0px" y="0px"
	 width="566.93px" height="566.93px" viewBox="0 0 566.93 566.93" enable-background="new 0 0 566.93 566.93" xml:space="preserve">
<g>
	<g>
		<path fill="#FFFFFF" d="M124.149,439.758c0-99.638,0-199.276,0-298.914c99.638,0,199.276,0,298.914,0
			c0,99.638,0,199.276,0,298.914C323.425,439.758,223.787,439.758,124.149,439.758z M277.837,247.243c0,0.005,0,0.011,0,0.016
			c-16.594,0-33.189-0.072-49.782,0.026c-9.999,0.06-15.784,4.921-17.549,14.628c-0.575,3.161-0.898,6.411-0.917,9.623
			c-0.113,19.406-0.163,38.812-0.119,58.219c0.044,19.267,13.527,32.906,32.825,33.02c23.765,0.138,47.532,0.163,71.298-0.011
			c17.977-0.131,32.157-13.086,32.381-30.384c0.288-22.333-0.105-44.684-0.693-67.014c-0.33-12.57-6.662-18.083-19.349-18.114
			C309.901,247.214,293.869,247.243,277.837,247.243z M220.607,238.945c4.857-0.229,9.716-0.633,14.572-0.618
			c2.86,0.009,4.324-0.678,5.484-3.646c5.96-15.248,20.667-25.342,36.405-25.445c16.975-0.111,31.572,9.74,38,25.645
			c0.72,1.78,1.068,3.593,3.87,3.453c5.382-0.268,10.785-0.078,16.142-0.078c-1.52-19.093-23.037-49.137-60.959-47.629
			C248.473,191.645,219.563,217.427,220.607,238.945z"/>
		<path fill-rule="evenodd" clip-rule="evenodd" d="M277.837,247.243c16.032,0,32.064-0.029,48.095,0.009
			c12.687,0.03,19.019,5.543,19.349,18.114c0.588,22.33,0.981,44.681,0.693,67.014c-0.224,17.298-14.404,30.253-32.381,30.384
			c-23.766,0.174-47.533,0.148-71.298,0.011c-19.298-0.113-32.78-13.753-32.825-33.02c-0.044-19.406,0.006-38.812,0.119-58.219
			c0.019-3.212,0.342-6.462,0.917-9.623c1.765-9.707,7.55-14.569,17.549-14.628c16.593-0.098,33.188-0.026,49.782-0.026
			C277.837,247.254,277.837,247.249,277.837,247.243z M271.804,319.48c0,3.658-0.027,7.317,0.007,10.975
			c0.041,4.361,2.352,7.096,5.958,7.133c3.554,0.037,6.027-2.761,6.063-7.069c0.06-7.176,0.133-14.354-0.034-21.525
			c-0.062-2.644,0.696-4.261,2.925-5.868c6.924-4.992,7.938-14.716,2.521-21.221c-5.257-6.312-14.92-7.131-21.1-1.787
			c-6.458,5.584-7.621,15.867-1.108,21.156c4.821,3.913,5.026,8.096,4.777,13.143C271.73,316.101,271.8,317.792,271.804,319.48z"/>
		<path fill-rule="evenodd" clip-rule="evenodd" d="M220.607,238.948c-1.043-21.521,27.866-47.303,53.514-48.322
			c37.922-1.507,59.439,28.537,60.959,47.629c-5.356,0-10.76-0.19-16.142,0.078c-2.802,0.14-3.15-1.673-3.87-3.453
			c-6.428-15.905-21.024-25.756-38-25.645c-15.738,0.103-30.445,10.198-36.405,25.445c-1.161,2.969-2.625,3.656-5.484,3.646
			C230.323,238.312,225.464,238.717,220.607,238.948z"/>
		<path fill-rule="evenodd" clip-rule="evenodd" fill="#FFFFFF" d="M271.802,319.48c-0.001-1.688-0.072-3.38,0.011-5.064
			c0.249-5.047,0.043-9.229-4.777-13.143c-6.513-5.289-5.35-15.572,1.108-21.156c6.18-5.344,15.842-4.525,21.1,1.787
			c5.418,6.505,4.403,16.229-2.521,21.221c-2.229,1.607-2.987,3.225-2.925,5.868c0.167,7.171,0.094,14.35,0.034,21.525
			c-0.036,4.309-2.509,7.106-6.063,7.069c-3.606-0.037-5.917-2.771-5.958-7.133C271.776,326.798,271.804,323.139,271.802,319.48z"/>
	</g>
</g>
</svg>
