<?xml version="1.0" encoding="utf-8"?>
<!-- Generator: Adobe Illustrator 16.0.0, SVG Export Plug-In . SVG Version: 6.00 Build 0)  -->
<!DOCTYPE svg PUBLIC "-//W3C//DTD SVG 1.1//EN" "http://www.w3.org/Graphics/SVG/1.1/DTD/svg11.dtd">
<svg version="1.1" id="Calque_1" xmlns="http://www.w3.org/2000/svg" xmlns:xlink="http://www.w3.org/1999/xlink" x="0px" y="0px"
	 width="566.93px" height="566.93px" viewBox="0 0 566.93 566.93" enable-background="new 0 0 566.93 566.93" xml:space="preserve">
<path fill-rule="evenodd" clip-rule="evenodd" d="M132.36,355.163c0-17.315-0.378-34.05,0.166-50.753
	c0.252-7.736,4.869-13.8,11.384-18.106c2.181-1.442,4.503-2.693,6.827-3.907c6.1-3.189,11.396-5.369,18.672-0.542
	c8.765,5.812,18.96,4.331,27.923-1.333c3.023-1.911,5.371-2.267,8.44-0.437c5.891,3.512,12.077,6.537,17.882,10.177
	c5.419,3.399,7.746,8.87,7.798,15.098c0.134,15.76,0.049,31.521,0.02,47.284c-0.003,0.781-0.33,1.562-0.544,2.519
	C198.205,355.163,165.598,355.163,132.36,355.163z"/>
<path fill-rule="evenodd" clip-rule="evenodd" d="M181.837,277.592c-14.987,0.001-26.042-11.077-25.999-26.063
	c0.037-14.494,11.424-25.934,25.851-25.97c14.546-0.037,26.43,11.645,26.528,26.075
	C208.309,266.081,196.611,277.591,181.837,277.592z"/>
<path fill-rule="evenodd" clip-rule="evenodd" d="M236.56,355.163c0-17.315-0.377-34.05,0.166-50.753
	c0.252-7.736,4.869-13.8,11.385-18.106c2.181-1.442,4.502-2.693,6.827-3.907c6.101-3.189,11.396-5.369,18.672-0.542
	c8.765,5.812,18.96,4.331,27.923-1.333c3.023-1.911,5.371-2.267,8.439-0.437c5.891,3.512,12.077,6.537,17.882,10.177
	c5.419,3.399,7.746,8.87,7.798,15.098c0.135,15.76,0.049,31.521,0.021,47.284c-0.003,0.781-0.33,1.562-0.544,2.519
	C302.405,355.163,269.797,355.163,236.56,355.163z"/>
<path fill-rule="evenodd" clip-rule="evenodd" d="M286.037,277.592c-14.987,0.001-26.042-11.077-25.999-26.063
	c0.038-14.494,11.424-25.934,25.851-25.97c14.547-0.037,26.43,11.645,26.528,26.075
	C312.509,266.081,300.811,277.591,286.037,277.592z"/>
<path fill-rule="evenodd" clip-rule="evenodd" d="M340.44,354.161c0-17.315-0.378-34.05,0.166-50.753
	c0.252-7.736,4.869-13.8,11.384-18.106c2.182-1.442,4.503-2.693,6.827-3.907c6.101-3.189,11.396-5.369,18.672-0.542
	c8.766,5.812,18.961,4.331,27.924-1.333c3.023-1.911,5.371-2.267,8.439-0.437c5.891,3.512,12.077,6.537,17.882,10.177
	c5.419,3.399,7.746,8.87,7.798,15.098c0.135,15.76,0.049,31.521,0.021,47.284c-0.003,0.781-0.33,1.562-0.544,2.519
	C406.285,354.161,373.678,354.161,340.44,354.161z"/>
<path fill-rule="evenodd" clip-rule="evenodd" d="M389.917,276.59c-14.986,0.001-26.041-11.077-25.998-26.063
	c0.038-14.494,11.424-25.934,25.851-25.97c14.547-0.037,26.43,11.645,26.528,26.075C416.389,265.079,404.69,276.589,389.917,276.59z
	"/>
</svg>
