<?xml version="1.0" encoding="utf-8"?>
<!-- Generator: Adobe Illustrator 16.0.0, SVG Export Plug-In . SVG Version: 6.00 Build 0)  -->
<!DOCTYPE svg PUBLIC "-//W3C//DTD SVG 1.1//EN" "http://www.w3.org/Graphics/SVG/1.1/DTD/svg11.dtd">
<svg version="1.1" id="Calque_1" xmlns="http://www.w3.org/2000/svg" xmlns:xlink="http://www.w3.org/1999/xlink" x="0px" y="0px"
	 width="566.93px" height="566.93px" viewBox="0 0 566.93 566.93" enable-background="new 0 0 566.93 566.93" xml:space="preserve">
<g>
	<path fill-rule="evenodd" clip-rule="evenodd" d="M442.565,313.391c-0.662,2.97-1.231,5.965-2.001,8.907
		c-5.076,19.403-16.995,33.084-35.104,41.377c-7.872,3.605-16.286,4.957-24.95,4.953c-68.107-0.028-136.215,0.042-204.322-0.051
		c-27.27-0.038-49.706-16.196-58.603-42.007c-1.466-4.255-2.148-8.78-3.193-13.18c0-4.194,0-8.388,0-12.582
		c0.673-2.955,1.261-5.932,2.032-8.861c7.417-28.158,32.301-46.882,61.281-46.078c1.475,0.041,2.135-0.38,2.694-1.741
		c8.728-21.235,24.311-34.379,46.924-38.443c6.156-1.106,12.676-0.312,19.022-0.154c1.583,0.04,2.344-0.364,3.104-1.64
		c9.374-15.714,22.414-27.337,39.428-34.099c24.46-9.72,48.539-8.192,71.304,4.842c22.742,13.021,36.221,32.965,40.271,58.976
		c0.721,4.623,0.756,9.376,0.801,14.072c0.02,2.032,1.37,2.247,2.573,2.722c7.228,2.849,13.627,6.971,19.299,12.267
		c10.54,9.839,16.658,21.973,18.877,36.152c0.133,0.846,0.373,1.674,0.562,2.511C442.565,305.353,442.565,309.371,442.565,313.391z
		 M278.498,348.431c33.282,0,66.564,0.031,99.848-0.021c8.865-0.015,17.274-1.778,24.89-6.735
		c25.887-16.849,24.824-54.675-2.159-69.735c-4.521-2.523-9.598-4.122-14.527-5.83c-6.57-2.276-6.482-2.134-6.031-8.938
		c0.777-11.723,0.749-23.331-3.986-34.492c-5.773-13.606-14.957-24.084-27.901-31.098c-12.808-6.941-26.478-8.959-40.817-6.109
		c-12.998,2.583-24.174,8.646-32.814,18.623c-4.636,5.354-8.179,11.658-12.15,17.578c-1.447,2.157-2.226,5.485-4.178,6.378
		c-1.963,0.896-5.02-0.512-7.576-1.015c-10.427-2.052-20.758-2.893-30.725,2.036c-8.736,4.319-15.541,10.63-19.477,19.61
		c-2.374,5.416-4.247,11.055-6.223,16.637c-0.55,1.553-1.162,2.191-2.97,2.032c-5.738-0.506-11.5-1.114-17.248-1.056
		c-16.978,0.174-32.11,11.933-37.717,28.945c-6.13,18.601,3.408,40.411,21.105,48.786c6.65,3.146,13.605,4.364,20.812,4.377
		C211.934,348.464,245.216,348.431,278.498,348.431z"/>
</g>
</svg>
